<svg width="56" height="56" viewBox="0 0 56 56" fill="none" xmlns="http://www.w3.org/2000/svg">
<path d="M47.0415 33.6098L44.8558 31.8106C43.6675 30.8326 42.6562 29.6575 41.8655 28.3374C40.7729 26.5133 39.2633 24.9741 37.4612 23.8463L36.5811 23.3338C36.2796 23.1242 36.0693 22.7975 36.0394 22.4289C36.0202 22.1912 36.0772 21.9787 36.21 21.7918C36.6683 21.1459 39.1629 18.4612 39.5969 18.102C40.156 17.64 40.7789 17.2556 41.3568 16.8156C41.439 16.7529 41.5214 16.6906 41.6026 16.627C41.6055 16.6242 41.6096 16.622 41.6121 16.6195C41.7975 16.4731 41.9725 16.3176 42.1116 16.1331C42.7893 15.3484 42.7758 14.6852 42.7758 14.6852C42.7758 14.6852 42.7764 14.6846 42.7767 14.6843C42.7046 14.5077 42.4453 13.9581 41.918 13.7003C42.3842 13.6912 42.9102 13.8659 43.1488 14.0994C43.4355 13.6496 43.6209 13.3578 43.9093 12.8674C43.9779 12.7509 44.0144 12.5356 43.8831 12.4151C43.8831 12.4151 43.8825 12.4151 43.8819 12.4151C43.8819 12.4151 43.8819 12.4145 43.8819 12.4138C43.8794 12.4113 43.8762 12.4094 43.8737 12.4069C43.8712 12.4044 43.8696 12.4016 43.8668 12.3987C43.8668 12.3987 43.8661 12.3987 43.8655 12.3987C43.8655 12.3987 43.8655 12.3981 43.8655 12.3975C43.8602 12.3921 43.8542 12.388 43.8485 12.383C43.8451 12.3795 43.8422 12.3754 43.8391 12.3717C43.8353 12.3685 43.8312 12.3657 43.8277 12.3622C43.8224 12.3569 43.8189 12.3502 43.8133 12.3452C43.8133 12.3452 43.8123 12.3449 43.812 12.3452C43.812 12.3452 43.812 12.3446 43.812 12.344C43.8095 12.3414 43.8063 12.3395 43.8038 12.337C43.8013 12.3345 43.7994 12.3314 43.7969 12.3288C43.7969 12.3288 43.796 12.3285 43.7956 12.3288C43.7956 12.3288 43.7956 12.3282 43.7956 12.3276C43.6751 12.1963 43.4598 12.2328 43.3433 12.3015C42.7056 12.6767 42.0852 13.0805 41.5258 13.4346C41.5258 13.4346 40.8629 13.4208 40.0779 14.0988C39.8931 14.2382 39.7376 14.4132 39.5916 14.5983C39.5887 14.6012 39.5862 14.6049 39.584 14.6078C39.5201 14.6887 39.4578 14.7711 39.3955 14.8536C38.9551 15.4318 38.5711 16.0545 38.109 16.6135C37.7502 17.0479 35.0652 19.5421 34.4193 20.0004C34.2323 20.1332 34.0201 20.1905 33.7822 20.171C33.4139 20.1414 33.0869 19.9308 32.8772 19.6293L32.3648 18.7492C31.237 16.9465 29.6977 15.4375 27.8736 14.3449C26.5535 13.5542 25.3788 12.5426 24.4005 11.3546L22.6012 9.16887C22.5125 9.06122 22.3425 9.07885 22.2789 9.20287C22.0743 9.60136 21.6837 10.4427 21.3843 11.5743C21.3771 11.6011 21.3834 11.6294 21.401 11.6508C21.7731 12.1003 22.6346 13.0909 23.6608 13.9288C23.7322 13.9871 23.6737 14.1023 23.5849 14.0777C22.6998 13.8366 21.8392 13.4494 21.1952 13.1195C21.1426 13.0928 21.079 13.1262 21.0715 13.1847C20.9714 13.9867 20.9456 14.8675 21.0513 15.796C21.0545 15.8263 21.0737 15.8524 21.1017 15.8647C21.836 16.1841 23.0104 16.6478 24.2434 16.9427C24.3328 16.9641 24.33 17.0929 24.2396 17.1102C23.2796 17.2909 22.2742 17.3312 21.4571 17.3205C21.3998 17.3198 21.3576 17.374 21.373 17.4291C21.537 18.0085 21.7592 18.5978 22.0523 19.1911C22.1735 19.4577 22.3054 19.7193 22.4467 19.9752C22.4709 20.019 22.5178 20.0451 22.5679 20.0429C23.2424 20.0099 24.0577 19.9387 24.8773 19.7939C25.0171 19.7694 25.092 19.9532 24.974 20.0322C24.4175 20.4043 23.8238 20.7247 23.2717 20.9885C23.1977 21.024 23.1738 21.1185 23.2226 21.1843C23.5506 21.6287 23.9113 22.0492 24.3032 22.4411C24.3032 22.4411 26.2327 24.4286 26.2853 24.5844C27.4112 23.4314 29.2621 22.1534 31.3059 21.0376C28.5687 23.2649 27.0426 24.9092 26.2746 25.8435L25.7392 26.5948C25.4609 26.9852 25.2195 27.3997 25.0177 27.8344C24.3426 29.2871 23.2295 32.2251 23.2295 32.2251C23.1442 32.4552 23.2138 32.6822 23.3617 32.8301C23.3652 32.8336 23.3687 32.837 23.3724 32.8402C23.3759 32.8436 23.379 32.8474 23.3825 32.8509C23.5308 32.9991 23.7574 33.0684 23.9875 32.9831C23.9875 32.9831 26.9249 31.8701 28.3782 31.1949C28.8129 30.9931 29.2278 30.7514 29.6178 30.4734L30.4453 29.8839C30.8835 29.5716 31.4834 29.6213 31.864 30.0019L33.7715 31.9094C34.1634 32.3013 34.5839 32.662 35.0284 32.99C35.0945 33.0385 35.1886 33.0149 35.2241 32.9409C35.4882 32.3891 35.8087 31.7948 36.1804 31.2386C36.2594 31.1206 36.4436 31.1958 36.4187 31.3353C36.2736 32.1552 36.2031 32.9705 36.1697 33.6447C36.1672 33.6945 36.1936 33.7417 36.2374 33.7659C36.493 33.9076 36.7546 34.0395 37.0215 34.1603C37.6148 34.4534 38.2044 34.6759 38.7836 34.8396C38.8386 34.855 38.8928 34.8128 38.8922 34.7556C38.8811 33.9381 38.9214 32.9327 39.1024 31.973C39.1194 31.8823 39.2482 31.8795 39.2699 31.9692C39.5645 33.2025 40.0282 34.3769 40.348 35.1109C40.3602 35.1389 40.3861 35.1578 40.4166 35.1613C41.3452 35.2671 42.2259 35.2412 43.0279 35.1412C43.0868 35.1339 43.1201 35.0703 43.0931 35.0174C42.7632 34.3734 42.376 33.5122 42.1349 32.6277C42.1107 32.5386 42.2256 32.4804 42.2838 32.5519C43.1217 33.578 44.1123 34.4395 44.5618 34.8116C44.5832 34.8292 44.6118 34.8352 44.6383 34.8283C45.7702 34.5292 46.6116 34.1386 47.0098 33.9337C47.1338 33.8701 47.1514 33.7001 47.0437 33.6114L47.0415 33.6098Z" fill="white"/>
<path d="M21.0564 41.6357L19.7794 40.5845C19.0852 40.0132 18.4943 39.3267 18.0324 38.5554C17.3941 37.4897 16.5121 36.5905 15.4593 35.9316L14.9451 35.6322C14.7689 35.5097 14.6461 35.3188 14.6286 35.1035C14.6174 34.9647 14.6507 34.8405 14.7283 34.7313C14.9961 34.3539 16.4534 32.7855 16.707 32.5757C17.0336 32.3057 17.3976 32.0812 17.7352 31.8241C17.7832 31.7875 17.8314 31.7511 17.8788 31.7139C17.8805 31.7123 17.8829 31.711 17.8843 31.7095C17.9926 31.624 18.0949 31.5332 18.1762 31.4254C18.5721 30.9669 18.5642 30.5795 18.5642 30.5795C18.5642 30.5795 18.5646 30.5791 18.5647 30.5789C18.5226 30.4758 18.3711 30.1547 18.0631 30.0041C18.3354 29.9987 18.6427 30.1008 18.7821 30.2372C18.9496 29.9744 19.058 29.804 19.2264 29.5175C19.2665 29.4494 19.2878 29.3236 19.2111 29.2532C19.2111 29.2532 19.2108 29.2532 19.2104 29.2532C19.2104 29.2532 19.2104 29.2528 19.2104 29.2525C19.2089 29.251 19.2071 29.2499 19.2056 29.2484C19.2042 29.247 19.2032 29.2453 19.2016 29.2436C19.2016 29.2436 19.2012 29.2436 19.2008 29.2436C19.2008 29.2436 19.2008 29.2433 19.2008 29.2429C19.1977 29.2398 19.1942 29.2374 19.1909 29.2345C19.1889 29.2324 19.1872 29.23 19.1854 29.2278C19.1832 29.226 19.1808 29.2243 19.1788 29.2223C19.1757 29.2192 19.1736 29.2153 19.1703 29.2124C19.1703 29.2124 19.1698 29.2122 19.1696 29.2124C19.1696 29.2124 19.1696 29.212 19.1696 29.2116C19.1681 29.2102 19.1663 29.2091 19.1648 29.2076C19.1633 29.2061 19.1622 29.2043 19.1608 29.2028C19.1608 29.2028 19.1602 29.2026 19.16 29.2028C19.16 29.2028 19.16 29.2025 19.16 29.2021C19.0896 29.1254 18.9638 29.1467 18.8958 29.1868C18.5232 29.406 18.1607 29.642 17.8339 29.8488C17.8339 29.8488 17.4467 29.8408 16.988 30.2369C16.8801 30.3183 16.7892 30.4206 16.7039 30.5287C16.7022 30.5304 16.7008 30.5326 16.6995 30.5342C16.6622 30.5815 16.6257 30.6297 16.5893 30.6779C16.3321 31.0157 16.1077 31.3794 15.8377 31.706C15.6281 31.9598 14.0595 33.417 13.6821 33.6847C13.5729 33.7623 13.4489 33.7958 13.3099 33.7844C13.0947 33.7671 12.9037 33.6441 12.7812 33.4679L12.4818 32.9538C11.8229 31.9006 10.9237 31.019 9.85799 30.3807C9.08673 29.9187 8.40043 29.3277 7.82888 28.6337L6.77772 27.3567C6.72587 27.2938 6.62656 27.3041 6.58941 27.3765C6.46988 27.6094 6.24167 28.1009 6.06678 28.762C6.06255 28.7777 6.06623 28.7942 6.07653 28.8067C6.29389 29.0693 6.79722 29.648 7.39672 30.1376C7.43846 30.1716 7.40426 30.2389 7.3524 30.2245C6.83528 30.0837 6.33251 29.8575 5.95626 29.6648C5.92555 29.6491 5.8884 29.6686 5.88399 29.7028C5.82551 30.1714 5.81043 30.6859 5.87222 31.2284C5.87406 31.2461 5.88528 31.2614 5.90164 31.2685C6.33067 31.4552 7.01679 31.7261 7.73711 31.8984C7.78934 31.9109 7.78768 31.9861 7.73491 31.9962C7.17402 32.1018 6.58666 32.1253 6.10926 32.1191C6.07579 32.1187 6.05115 32.1503 6.06016 32.1825C6.15597 32.521 6.2858 32.8653 6.45701 33.2119C6.52781 33.3677 6.60486 33.5205 6.68743 33.67C6.70159 33.6956 6.72899 33.7109 6.75823 33.7096C7.15232 33.6903 7.62861 33.6487 8.10748 33.5641C8.18913 33.5498 8.2329 33.6572 8.16394 33.7033C7.83881 33.9207 7.49198 34.1079 7.16942 34.262C7.12621 34.2828 7.11223 34.3379 7.14074 34.3764C7.33236 34.636 7.5431 34.8817 7.77205 35.1107C7.77205 35.1107 8.89934 36.2718 8.93005 36.3628C9.58785 35.6892 10.6692 34.9426 11.8632 34.2907C10.264 35.5919 9.3725 36.5526 8.9238 37.0984L8.61099 37.5374C8.44842 37.7654 8.30738 38.0076 8.1895 38.2616C7.79504 39.1102 7.14478 40.8267 7.14478 40.8267C7.09495 40.9612 7.13559 41.0937 7.22202 41.1802C7.22404 41.1822 7.22606 41.1842 7.22827 41.1861C7.23029 41.1881 7.23213 41.1903 7.23415 41.1923C7.32077 41.2789 7.45318 41.3194 7.5876 41.2696C7.5876 41.2696 9.30373 40.6193 10.1528 40.2248C10.4067 40.107 10.6491 39.9657 10.877 39.8033L11.3604 39.4589C11.6164 39.2765 11.9669 39.3055 12.1892 39.5279L13.3037 40.6423C13.5326 40.8712 13.7783 41.082 14.038 41.2736C14.0766 41.3019 14.1316 41.2881 14.1523 41.2449C14.3066 40.9225 14.4938 40.5753 14.711 40.2504C14.7572 40.1814 14.8648 40.2254 14.8502 40.3069C14.7654 40.7859 14.7243 41.2622 14.7048 41.6561C14.7033 41.6852 14.7187 41.7127 14.7443 41.7269C14.8936 41.8097 15.0464 41.8867 15.2024 41.9573C15.549 42.1285 15.8935 42.2585 16.2318 42.3542C16.264 42.3632 16.2957 42.3385 16.2953 42.3051C16.2888 41.8275 16.3124 41.2401 16.4181 40.6794C16.4281 40.6265 16.5033 40.6248 16.516 40.6772C16.6881 41.3977 16.959 42.0838 17.1458 42.5127C17.153 42.5291 17.1681 42.5401 17.1859 42.5421C17.7284 42.6039 18.2429 42.5888 18.7115 42.5303C18.7459 42.5261 18.7654 42.489 18.7496 42.4581C18.5568 42.0818 18.3306 41.5787 18.1898 41.0619C18.1756 41.0099 18.2427 40.9759 18.2768 41.0176C18.7663 41.6171 19.345 42.1204 19.6076 42.3378C19.6201 42.3481 19.6369 42.3516 19.6523 42.3476C20.3136 42.1729 20.8052 41.9446 21.0378 41.8249C21.1102 41.7878 21.1205 41.6885 21.0576 41.6366L21.0564 41.6357Z" fill="white"/>
<path d="M32.8042 44.2102L32.2703 43.7707C31.98 43.5318 31.733 43.2447 31.5398 42.9223C31.2729 42.4767 30.9041 42.1007 30.4639 41.8252L30.2489 41.7C30.1753 41.6488 30.1239 41.569 30.1166 41.4789C30.1119 41.4209 30.1258 41.369 30.1583 41.3233C30.2702 41.1655 30.8796 40.5097 30.9856 40.422C31.1222 40.3091 31.2744 40.2152 31.4155 40.1077C31.4356 40.0924 31.4558 40.0772 31.4756 40.0616C31.4763 40.061 31.4773 40.0604 31.4779 40.0598C31.5232 40.024 31.5659 39.9861 31.5999 39.941C31.7655 39.7493 31.7622 39.5873 31.7622 39.5873C31.7622 39.5873 31.7623 39.5871 31.7624 39.5871C31.7448 39.5439 31.6814 39.4097 31.5526 39.3467C31.6665 39.3445 31.795 39.3872 31.8533 39.4442C31.9233 39.3343 31.9686 39.263 32.0391 39.1433C32.0558 39.1148 32.0647 39.0622 32.0327 39.0328C32.0327 39.0328 32.0325 39.0328 32.0324 39.0328C32.0324 39.0328 32.0324 39.0326 32.0324 39.0324C32.0318 39.0318 32.031 39.0314 32.0304 39.0308C32.0298 39.0301 32.0294 39.0295 32.0287 39.0288C32.0287 39.0288 32.0285 39.0288 32.0284 39.0288C32.0284 39.0288 32.0284 39.0286 32.0284 39.0285C32.0271 39.0271 32.0256 39.0261 32.0242 39.0249C32.0234 39.0241 32.0227 39.0231 32.0219 39.0221C32.021 39.0214 32.02 39.0207 32.0191 39.0198C32.0178 39.0185 32.017 39.0169 32.0156 39.0157C32.0156 39.0157 32.0154 39.0156 32.0153 39.0157C32.0153 39.0157 32.0153 39.0155 32.0153 39.0154C32.0147 39.0148 32.0139 39.0143 32.0133 39.0137C32.0127 39.0131 32.0122 39.0123 32.0116 39.0117C32.0116 39.0117 32.0114 39.0116 32.0113 39.0117C32.0113 39.0117 32.0113 39.0115 32.0113 39.0114C31.9819 38.9793 31.9293 38.9882 31.9008 39.005C31.745 39.0967 31.5935 39.1953 31.4568 39.2818C31.4568 39.2818 31.2949 39.2784 31.1031 39.4441C31.058 39.4781 31.02 39.5209 30.9843 39.5661C30.9836 39.5668 30.983 39.5677 30.9825 39.5684C30.9669 39.5881 30.9517 39.6083 30.9364 39.6284C30.8289 39.7697 30.735 39.9218 30.6222 40.0583C30.5345 40.1645 29.8786 40.7737 29.7208 40.8857C29.6752 40.9181 29.6233 40.9321 29.5652 40.9274C29.4753 40.9201 29.3954 40.8687 29.3442 40.795L29.219 40.5801C28.9435 40.1397 28.5675 39.7711 28.1219 39.5042C27.7994 39.311 27.5124 39.0639 27.2735 38.7737L26.8339 38.2398C26.8123 38.2135 26.7707 38.2178 26.7552 38.2481C26.7052 38.3454 26.6098 38.551 26.5367 38.8274C26.5349 38.8339 26.5364 38.8408 26.5407 38.8461C26.6316 38.9559 26.8421 39.1978 27.0928 39.4025C27.1102 39.4168 27.0959 39.4449 27.0742 39.4389C26.858 39.38 26.6478 39.2854 26.4905 39.2048C26.4776 39.1983 26.4621 39.2065 26.4602 39.2208C26.4358 39.4167 26.4295 39.6318 26.4553 39.8587C26.4561 39.866 26.4608 39.8724 26.4676 39.8754C26.647 39.9535 26.9339 40.0667 27.2351 40.1388C27.2569 40.144 27.2562 40.1754 27.2342 40.1797C26.9996 40.2238 26.754 40.2337 26.5544 40.231C26.5404 40.2309 26.5301 40.2441 26.5339 40.2576C26.574 40.3991 26.6283 40.5431 26.6998 40.688C26.7294 40.7531 26.7617 40.817 26.7962 40.8795C26.8021 40.8902 26.8136 40.8966 26.8258 40.8961C26.9906 40.888 27.1897 40.8706 27.3899 40.8353C27.4241 40.8293 27.4424 40.8742 27.4135 40.8935C27.2776 40.9844 27.1326 41.0626 26.9977 41.1271C26.9796 41.1358 26.9738 41.1588 26.9857 41.1749C27.0658 41.2835 27.154 41.3862 27.2497 41.4819C27.2497 41.4819 27.721 41.9674 27.7339 42.0055C28.0089 41.7238 28.461 41.4116 28.9603 41.1391C28.2917 41.6831 27.9189 42.0848 27.7313 42.313L27.6005 42.4966C27.5325 42.5919 27.4735 42.6932 27.4242 42.7994C27.2593 43.1542 26.9874 43.872 26.9874 43.872C26.9666 43.9282 26.9836 43.9836 27.0197 44.0197C27.0206 44.0206 27.0214 44.0214 27.0223 44.0222C27.0232 44.023 27.0239 44.024 27.0248 44.0248C27.061 44.061 27.1164 44.0779 27.1726 44.0571C27.1726 44.0571 27.8901 43.7852 28.2451 43.6203C28.3513 43.571 28.4527 43.5119 28.5479 43.444L28.7501 43.3C28.8571 43.2238 29.0037 43.2359 29.0966 43.3289L29.5626 43.7948C29.6583 43.8906 29.7611 43.9787 29.8696 44.0588C29.8858 44.0706 29.9088 44.0649 29.9175 44.0468C29.982 43.912 30.0602 43.7668 30.1511 43.631C30.1704 43.6021 30.2153 43.6205 30.2093 43.6546C30.1738 43.8549 30.1566 44.054 30.1484 44.2187C30.1478 44.2309 30.1543 44.2424 30.165 44.2483C30.2274 44.2829 30.2913 44.3152 30.3565 44.3447C30.5015 44.4163 30.6455 44.4706 30.787 44.5106C30.8004 44.5144 30.8136 44.5041 30.8135 44.4901C30.8108 44.2904 30.8206 44.0448 30.8648 43.8104C30.869 43.7882 30.9004 43.7875 30.9057 43.8094C30.9777 44.1107 31.091 44.3976 31.1691 44.5769C31.1721 44.5837 31.1784 44.5884 31.1859 44.5892C31.4127 44.615 31.6278 44.6087 31.8238 44.5843C31.8381 44.5825 31.8463 44.567 31.8397 44.5541C31.7591 44.3967 31.6645 44.1864 31.6056 43.9703C31.5997 43.9485 31.6278 43.9343 31.642 43.9518C31.8467 44.2024 32.0887 44.4129 32.1985 44.5038C32.2037 44.5081 32.2107 44.5095 32.2171 44.5078C32.4936 44.4348 32.6992 44.3394 32.7964 44.2893C32.8267 44.2738 32.831 44.2323 32.8047 44.2106L32.8042 44.2102Z" fill="white"/>
</svg>
