<svg width="198" height="199" viewBox="0 0 198 199" fill="none" xmlns="http://www.w3.org/2000/svg">
<g clip-path="url(#clip0_1335_169)">
<path d="M197.091 186.016L180.571 172.418C171.591 165.027 163.947 156.146 157.971 146.169C149.714 132.382 138.304 120.749 124.685 112.225L118.033 108.352C115.754 106.768 114.165 104.299 113.939 101.513C113.794 99.7168 114.224 98.111 115.228 96.6979C118.692 91.8163 137.545 71.526 140.826 68.8116C145.051 65.3193 149.759 62.4146 154.127 59.0888C154.748 58.6154 155.371 58.1443 155.985 57.6638C156.006 57.6424 156.037 57.6257 156.056 57.6067C157.457 56.5005 158.78 55.3253 159.832 53.9312C164.954 48.0004 164.851 42.9879 164.851 42.9879C164.851 42.9879 164.856 42.9832 164.858 42.9808C164.314 41.6462 162.353 37.4925 158.369 35.5442C161.892 35.4752 165.867 36.7955 167.67 38.5607C169.838 35.1611 171.239 32.9558 173.418 29.2494C173.936 28.3692 174.212 26.742 173.22 25.8308C173.22 25.8308 173.216 25.8308 173.211 25.8308C173.211 25.8308 173.211 25.8261 173.211 25.8213C173.192 25.8023 173.168 25.788 173.149 25.769C173.13 25.7499 173.118 25.7285 173.097 25.7071C173.097 25.7071 173.092 25.7071 173.087 25.7071C173.087 25.7071 173.087 25.7024 173.087 25.6976C173.047 25.6572 173.002 25.6262 172.959 25.5882C172.933 25.562 172.911 25.5311 172.887 25.5025C172.859 25.4787 172.828 25.4573 172.802 25.4312C172.761 25.3907 172.735 25.3408 172.692 25.3027C172.692 25.3027 172.685 25.3003 172.683 25.3027C172.683 25.3027 172.683 25.2979 172.683 25.2932C172.664 25.2741 172.64 25.2599 172.621 25.2408C172.602 25.2218 172.588 25.198 172.569 25.179C172.569 25.179 172.561 25.1766 172.559 25.179C172.559 25.179 172.559 25.1742 172.559 25.1695C171.648 24.1774 170.021 24.4534 169.14 24.972C164.321 27.8077 159.632 30.86 155.404 33.5363C155.404 33.5363 150.394 33.4316 144.461 38.5559C143.065 39.6098 141.889 40.9325 140.786 42.3314C140.764 42.3528 140.745 42.3813 140.728 42.4027C140.246 43.0141 139.775 43.6374 139.303 44.2607C135.975 48.6309 133.073 53.3365 129.581 57.5615C126.869 60.8445 106.576 79.6954 101.694 83.1592C100.281 84.1631 98.6778 84.5961 96.8793 84.4486C94.0959 84.225 91.6242 82.6334 90.0398 80.3544L86.1668 73.7028C77.643 60.0785 66.0098 48.6737 52.2237 40.4163C42.2463 34.4403 33.368 26.7943 25.9742 17.8161L12.376 1.29651C11.7051 0.482902 10.4205 0.616125 9.93994 1.55344C8.39361 4.56521 5.44131 10.9242 3.17891 19.4766C3.1242 19.6788 3.17178 19.8929 3.305 20.0547C6.11694 23.4519 12.6282 30.9385 20.3836 37.2713C20.9236 37.7114 20.4811 38.5821 19.8103 38.3965C13.1206 36.5742 6.61653 33.6481 1.74916 31.155C1.35187 30.9527 0.871323 31.2049 0.814228 31.6474C0.0577156 37.709 -0.137363 44.3654 0.661971 51.3833C0.68576 51.6117 0.830882 51.8092 1.04261 51.9019C6.59274 54.3166 15.4687 57.8208 24.7871 60.0499C25.4627 60.2117 25.4413 61.1847 24.7585 61.3155C17.5027 62.681 9.90426 62.9856 3.72846 62.9047C3.29549 62.8999 2.9767 63.3091 3.09327 63.7254C4.33272 68.1051 6.01226 72.5585 8.22708 77.0429C9.14299 79.0579 10.1398 81.0348 11.2079 82.9689C11.3911 83.2996 11.7456 83.497 12.1238 83.4804C17.222 83.2306 23.3835 82.6929 29.5783 81.5986C30.6346 81.413 31.2008 82.8024 30.3087 83.3995C26.1026 86.2114 21.6159 88.6332 17.4432 90.6268C16.8841 90.8956 16.7033 91.6093 17.0721 92.1065C19.551 95.4656 22.2773 98.6439 25.2391 101.606C25.2391 101.606 39.8222 116.627 40.2194 117.804C48.729 109.09 62.7173 99.4313 78.164 90.9979C57.4765 107.831 45.9432 120.259 40.1386 127.32L36.0919 132.999C33.9889 135.949 32.1643 139.082 30.6393 142.367C25.5365 153.346 17.1244 175.551 17.1244 175.551C16.4797 177.29 17.0055 179.005 18.1236 180.124C18.1497 180.15 18.1759 180.176 18.2045 180.2C18.2306 180.226 18.2544 180.254 18.2806 180.281C19.4011 181.401 21.1139 181.924 22.853 181.28C22.853 181.28 45.0535 172.868 56.0372 167.765C59.3226 166.24 62.458 164.413 65.4056 162.312L71.6599 157.856C74.9714 155.496 79.5057 155.872 82.3819 158.749L96.7984 173.165C99.7603 176.127 102.939 178.853 106.298 181.332C106.797 181.698 107.509 181.52 107.777 180.961C109.773 176.791 112.195 172.299 115.005 168.096C115.602 167.203 116.994 167.772 116.806 168.826C115.709 175.023 115.176 181.185 114.924 186.28C114.905 186.656 115.105 187.013 115.435 187.196C117.367 188.267 119.344 189.264 121.361 190.177C125.846 192.392 130.301 194.074 134.679 195.311C135.095 195.427 135.504 195.109 135.5 194.676C135.416 188.498 135.721 180.899 137.089 173.646C137.217 172.96 138.19 172.939 138.354 173.617C140.581 182.938 144.085 191.814 146.502 197.362C146.595 197.573 146.79 197.716 147.021 197.742C154.039 198.542 160.695 198.346 166.757 197.59C167.202 197.535 167.454 197.055 167.249 196.655C164.756 191.788 161.83 185.279 160.008 178.594C159.824 177.921 160.693 177.481 161.133 178.021C167.466 185.776 174.952 192.287 178.349 195.099C178.511 195.232 178.728 195.278 178.928 195.225C187.482 192.965 193.841 190.013 196.851 188.464C197.788 187.984 197.921 186.699 197.108 186.028L197.091 186.016Z" fill="white"/>
</g>
<defs>
<clipPath id="clip0_1335_169">
<rect width="198" height="199" fill="white"/>
</clipPath>
</defs>
</svg>
